<svg height="16" viewBox="0 0 15 16" width="15" xmlns="http://www.w3.org/2000/svg" xmlns:xlink="http://www.w3.org/1999/xlink"><clipPath id="a"><path d="m0 0h15v16h-15z"/></clipPath><g clip-path="url(#a)" fill="#040405"><path d="m10.912 15.142h-6.682a4.235 4.235 0 0 1 -4.23-4.23v-6.682a4.235 4.235 0 0 1 4.23-4.23h6.681a4.235 4.235 0 0 1 4.23 4.23v6.681a4.235 4.235 0 0 1 -4.23 4.23m-6.681-13.764a2.857 2.857 0 0 0 -2.853 2.853v6.681a2.857 2.857 0 0 0 2.853 2.854h6.681a2.857 2.857 0 0 0 2.854-2.854v-6.681a2.857 2.857 0 0 0 -2.854-2.854z" transform="translate(-.203 .223)"/><path d="m112.911 116.823a3.911 3.911 0 1 1 3.911-3.911 3.916 3.916 0 0 1 -3.911 3.911m0-6.446a2.535 2.535 0 1 0 2.535 2.535 2.538 2.538 0 0 0 -2.535-2.535" transform="translate(-105.544 -105.118)"/><path d="m319.923 77.847a.923.923 0 1 1 .923-.923.924.924 0 0 1 -.923.923" transform="translate(-308.493 -73.226)"/></g></svg>